Naruto Shippuuden Episode 272


Title: Mifune vs. Hanzou

Release date : August 2nd, 2012

Audio language : Japanese

SubTitle language : English



General

Format : MPEG-4
Format profile : Base Media
Codec ID : isom
File size : 44.1 MiB
Duration : 23mn 9s
Overall bit rate mode : Variable
Overall bit rate : 266 Kbps
Encoded date : UTC 2012-08-01 11:03:30
Tagged date : UTC 2012-08-01 11:03:30


Video

Format : AVC
Format/Info : Advanced Video Codec
Format profile : High@L3.0
Format settings, CABAC : Yes
Format settings, ReFrames : 6 frames
Codec ID : avc1
Codec ID/Info : Advanced Video Coding
Duration : 23mn 9s
Bit rate mode : Variable
Bit rate : 185 Kbps
Maximum bit rate : 1 243 Kbps
Width : 640 pixels
Height : 360 pixels
Display aspect ratio : 16:9
Original display aspect ratio : 16:9
Frame rate mode : Constant
Frame rate : 23.976 fps
Color space : YUV
Chroma subsampling : 4:2:0
Bit depth : 8 bits
Scan type : Progressive
Bits/(Pixel*Frame) : 0.033
Stream size : 30.6 MiB (70%)
Writing library : x264 core 125 r2208 d9d2288


Audio

Format : AAC
Format/Info : Advanced Audio Codec
Format profile : LC
Codec ID : 40
Duration : 23mn 9s
Bit rate mode : Variable
Bit rate : 77.3 Kbps
Maximum bit rate : 118 Kbps
Channel(s) : 2 channels
Channel positions : Front: L R
Sampling rate : 44.1 KHz
Compression mode : Lossy
Stream size : 12.8 MiB (29%)
